<svg xmlns="http://www.w3.org/2000/svg" viewBox="0 0 512 512">
  <path fill="#D42426" d="M424.1,281.3c-14.7-21.7-41.1-66.2-61.9-106.8c-23.7-46.3-43.1-92.6-43.1-92.6s-108.6,12.8-175.4,85.1c-43.2,46.8-59.4,115.6-59.4,115.6l314.2,60.2C411.3,313.5,424.1,281.3,424.1,281.3z"/>
  <path fill="#D42426" d="M424.1,281.3c21-5.1,47.9,13.8,55.1,45.4c7.2,31.6-13.6,67.6-43.1,84.7c-5.9-22.3-11.8-44.6-17.7-66.9C414.2,323.5,424.1,281.3,424.1,281.3z"/>
  <circle fill="#F8FAFC" cx="445.6" cy="397.7" r="45"/>
  <path fill="#F8FAFC" d="M411.3,342.8c0,0-12.8,32.2-25.6,64.4c-6.4,16.1-34.1,29.1-55.7,29.1H100.1c-21.6,0-49.3-13-55.7-29.1l-25.6-64.4c-6.4-16.1,6.3-29.1,27.9-29.1h336.7C405,313.7,417.7,326.7,411.3,342.8z"/>
</svg>